<svg xmlns="http://www.w3.org/2000/svg" viewBox="0 0 235.82 179.97"><defs><style>.cls-1{fill:#fff;}.cls-2{fill:#006eaa;}.cls-3{fill:#515254;}</style></defs><g id="Layer_2" data-name="Layer 2"><g id="Layer_1-2" data-name="Layer 1"><path class="cls-1" d="M158.34,180H83.79L31.08,127.26V52.71L83.79,0h74.55l52.71,52.71v74.55Zm-71.73-6.8h68.91l48.73-48.73V55.53L155.52,6.8H86.61L37.88,55.53v68.91Z"/><polygon class="cls-2" points="32.41 70.63 32.41 53.26 84.34 1.32 157.79 1.32 209.73 53.26 209.73 70.63 211.05 70.63 211.05 52.71 158.34 0 83.79 0 31.08 52.71 31.08 70.63 32.41 70.63"/><polygon class="cls-2" points="85.67 174.1 86.06 174.49 86.61 174.49 155.52 174.49 156.07 174.49 156.46 174.1 205.19 125.38 205.57 124.99 205.57 124.44 205.57 108.16 204.25 108.16 204.25 124.44 155.52 173.17 86.61 173.17 37.88 124.44 37.88 108.16 36.56 108.16 36.56 124.44 36.56 124.99 36.95 125.38 85.67 174.1"/><polygon class="cls-2" points="209.73 108.16 209.73 126.71 157.79 178.65 84.34 178.65 32.41 126.71 32.41 108.16 31.08 108.16 31.08 127.25 83.79 179.97 158.34 179.97 211.05 127.25 211.05 108.16 209.73 108.16"/><polygon class="cls-2" points="205.57 54.98 205.19 54.59 156.46 5.86 156.07 5.47 155.52 5.47 86.61 5.47 86.06 5.47 85.67 5.86 36.95 54.59 36.56 54.98 36.56 55.53 36.56 70.63 37.88 70.63 37.88 55.53 86.61 6.8 155.52 6.8 204.25 55.53 204.25 70.63 205.57 70.63 205.57 55.53 205.57 54.98"/><path class="cls-3" d="M13.88,76.57c7.93,0,13.84,5.52,13.84,13.41s-5.91,13.41-13.84,13.41S0,97.88,0,90,6,76.57,13.88,76.57m0,5.91c-4.32,0-7.08,3.27-7.08,7.5s2.76,7.51,7.08,7.51,7-3.31,7-7.51-2.76-7.5-7-7.5"/><polygon class="cls-3" points="39.55 93.17 37.8 95.35 37.8 102.93 31.11 102.93 31.11 77 37.8 77 37.8 87.65 45.77 77 54.01 77 43.94 89.13 54.55 102.93 46.35 102.93 39.55 93.17"/><polygon class="cls-3" points="62.33 82.83 55.06 82.83 55.06 77 76.25 77 76.25 82.83 69.02 82.83 69.02 102.93 62.33 102.93 62.33 82.83"/><path class="cls-3" d="M93.63,99H82.86l-1.32,3.93H74.27L84,77h8.4l9.79,25.93H95Zm-9-5.63h7.27L88.23,82.83Z"/><path class="cls-3" d="M115.6,76.57a12.18,12.18,0,0,1,11.08,6l-5.59,3a6.46,6.46,0,0,0-5.49-3.07,7.51,7.51,0,0,0,0,15,8,8,0,0,0,4.9-1.56V93.75h-6V88.19h12.52V98.34a15,15,0,0,1-11.47,5.06c-7.73,0-14-5.17-14-13.42s6.3-13.41,14-13.41"/><path class="cls-3" d="M143.56,76.57c7.93,0,13.84,5.52,13.84,13.41s-5.91,13.41-13.84,13.41S129.68,97.88,129.68,90s5.95-13.41,13.88-13.41m0,5.91c-4.31,0-7.07,3.27-7.07,7.5s2.76,7.51,7.07,7.51,7-3.31,7-7.51-2.76-7.5-7-7.5"/><polygon class="cls-3" points="167.48 87.26 167.48 102.93 160.79 102.93 160.79 77 167.67 77 178.17 91.93 178.17 77 184.9 77 184.9 102.93 178.44 102.93 167.48 87.26"/><rect class="cls-2" x="204.25" y="76.81" width="6.8" height="26.35"/><polygon class="cls-2" points="221.68 82.73 214.29 82.73 214.29 76.8 235.82 76.8 235.82 82.73 228.47 82.73 228.47 103.16 221.68 103.16 221.68 82.73"/></g></g></svg>